# xmcd
#
# Track frame offsets: 
#        150
#        11808
#        26499
#        38175
#        74025
#        90773
#        103764
#        127650
#        135750
#        155850
#        166950
#        186600
#        200100
#        214949
#        235119
#        243981
#
# Disc length: 3367 seconds
#
# Revision: 0
# Processed by: cddbd v1.5.2PL0 Copyright (c) Steve Scherf et al.
# Submitted via: ExactAudioCopyFreeDBPlugin 1.0
#
DISCID=dd0d2510
DTITLE=Bill Madison - Sunday Mornin' Hayride
DYEAR=1973
DGENRE=Folk/Rock
TTITLE0=Sunshine Cowboy
TTITLE1=Boldly
TTITLE2=Old House
TTITLE3=Buffallo Skinners
TTITLE4=Low Days Down
TTITLE5=Before You Go
TTITLE6=Rather Be the Devil
TTITLE7=Sister Kate
TTITLE8=Penance
TTITLE9=Sunday Morning Hayride
TTITLE10=Kingdoms
TTITLE11=I Don't Know Why
TTITLE12=Bathroom Floor Into Lamplight
TTITLE13=Violets Of Dawn
TTITLE14=Softly
TTITLE15=Just Your Way
EXTD=
EXTT0=
EXTT1=
EXTT2=
EXTT3=
EXTT4=
EXTT5=
EXTT6=
EXTT7=
EXTT8=
EXTT9=
EXTT10=
EXTT11=
EXTT12=
EXTT13=
EXTT14=
EXTT15=
PLAYORDER=
